<svg width="465" height="121" viewBox="0 0 465 121" fill="none" xmlns="http://www.w3.org/2000/svg">
<path d="M17.4053 104.297L31.9097 101.396V23.1434H13.0893L9.48092 37.6478H0V11.5399H79.0313V37.6478H69.6211L65.9419 23.1434H47.1216V101.396L61.626 104.297V113H17.4053V104.297Z" fill="black"/>
<path d="M87.0264 104.297L99.3374 101.396V23.1434L87.0264 20.2426V12.3182L126.86 11.5399V20.2426L114.549 23.1434V101.396L126.86 104.297V113H87.0264V104.297Z" fill="black"/>
<path d="M151.553 23.1434L139.242 20.2426V12.3182L166.765 11.5399H181.977C192.684 11.5399 200.915 14.205 206.67 19.535C212.425 24.8651 215.302 32.1055 215.302 41.2562C215.302 52.3881 211.882 60.8549 205.043 66.6566C198.25 72.4584 188.628 75.3593 176.175 75.3593H166.765V101.396L179.076 104.297V113H139.242V104.297L151.553 101.396V23.1434ZM176.175 63.7558C184.1 63.7558 190.067 62.0105 194.076 58.52C198.085 55.0295 200.09 50.0061 200.09 43.4496C200.09 37.4592 198.439 32.5772 195.137 28.8037C191.883 25.0302 187.26 23.1434 181.27 23.1434H166.765V63.7558H176.175Z" fill="black"/>
<path d="M405.905 61.5624L379.089 23.1434L368.193 20.2426V12.3182L406.612 11.5399V20.2426L397.202 23.1434L416.022 50.6664L434.843 23.1434L424.725 20.2426V12.3182L463.144 11.5399V20.2426L450.055 23.1434L424.018 60.8549L452.248 101.396L464.559 104.297V113H425.433V104.297L434.135 102.104L413.829 72.4584L392.108 101.396L404.419 104.297V113H366V104.297L375.481 102.104L405.905 61.5624Z" fill="black"/>
<circle cx="291.085" cy="60.5" r="53" stroke="#A4A4A4" stroke-width="15"/>
</svg>
